<svg xmlns="http://www.w3.org/2000/svg" xmlns:xlink="http://www.w3.org/1999/xlink" version="1.1" width="1000" height="1000" viewBox="0 0 1000 1000" xml:space="preserve">
<desc>Created with Fabric.js 3.5.0</desc>
<defs>
</defs>
<rect x="0" y="0" width="100%" height="100%" fill="#ffffff"/>
<g transform="matrix(0.6836 0 0 0.9248 500.0071 499.9937)" id="226502">
<g style="" vector-effect="non-scaling-stroke">
		<g transform="matrix(1 0 0 1 -0.005 440.07)" id="svg_1">
<ellipse style="stroke: none; stroke-width: 1; stroke-dasharray: none; stroke-linecap: butt; stroke-dashoffset: 0; stroke-linejoin: miter; stroke-miterlimit: 4; is-custom-font: none; font-file-url: none; fill: rgb(0,0,0); fill-rule: nonzero; opacity: 0.22;" cx="0" cy="0" rx="231.87" ry="51.43"/>
</g>
		<g transform="matrix(1 0 0 1 -0.005 -25.715)" id="svg_2">
<path style="stroke: none; stroke-width: 1; stroke-dasharray: none; stroke-linecap: butt; stroke-dashoffset: 0; stroke-linejoin: miter; stroke-miterlimit: 4; is-custom-font: none; font-file-url: none; fill: rgb(0,27,135); fill-rule: nonzero; opacity: 1;" transform=" translate(-375, -473.785)" d="m 375 8 c -571.06 0 0 931.57 0 931.57 s 571.06 -931.57 0 -931.57 z m 0 362.42 a 147.25 147.25 0 1 1 147.25 -147.24 a 147.25 147.25 0 0 1 -147.25 147.24 z" stroke-linecap="round"/>
</g>
		<g transform="matrix(1 0 0 1 126.8972 -25.715)" id="svg_3">
<path style="stroke: none; stroke-width: 1; stroke-dasharray: none; stroke-linecap: butt; stroke-dashoffset: 0; stroke-linejoin: miter; stroke-miterlimit: 4; is-custom-font: none; font-file-url: none; fill: rgb(0,17,51); fill-rule: nonzero; opacity: 1;" transform=" translate(-501.9022, -473.785)" d="m 375 939.57 l 0 -569.15 a 147.25 147.25 0 1 0 0 -294.49 l 0 -67.93 c 571.06 0 0 931.57 0 931.57 z" stroke-linecap="round"/>
</g>
</g>
</g>
</svg>